PathFileType	4	(X/Y/Z)	c:/Users/goper/Files/vsCode/490R/osim_files/A03/A03_SSWS_03.trc
DataRate	CameraRate	NumFrames	NumMarkers	Units                	OrigDataRate	OrigDataStartFrame	OrigNumFrames
250.00	250.00	6	36	mm	250.0	1386	2771
                Frame#	Time	LPSIS			LASIS			LTH1			LTH2			LTH3			LTH4			LLFE			LMFE			LSH1			LSH2			LSH3			LSH4			LLMAL			LMMAL			LCAL			LMTP5			LTOE			LMTP1			RPSIS			RASIS			RTH1			RTH2			RTH3			RTH4			RLFE			RMFE			RSH1			RSH2			RSH3			RSH4			RLMAL			RMMAL			RCAL			RMTP1			RTOE			RMTP5		
		X1	Y1	Z1	X2	Y2	Z2	X3	Y3	Z3	X4	Y4	Z4	X5	Y5	Z5	X6	Y6	Z6	X7	Y7	Z7	X8	Y8	Z8	X9	Y9	Z9	X10	Y10	Z10	X11	Y11	Z11	X12	Y12	Z12	X13	Y13	Z13	X14	Y14	Z14	X15	Y15	Z15	X16	Y16	Z16	X17	Y17	Z17	X18	Y18	Z18	X19	Y19	Z19	X20	Y20	Z20	X21	Y21	Z21	X22	Y22	Z22	X23	Y23	Z23	X24	Y24	Z24	X25	Y25	Z25	X26	Y26	Z26	X27	Y27	Z27	X28	Y28	Z28	X29	Y29	Z29	X30	Y30	Z30	X31	Y31	Z31	X32	Y32	Z32	X33	Y33	Z33	X34	Y34	Z34	X35	Y35	Z35	X36	Y36	Z36

1386	5.54000	-963.24622	1027.34045	337.06915	-1192.08093	950.27722	474.45135	-1162.38367	605.30908	562.06726	-1167.63696	562.38367	568.04816	-1223.73926	603.87012	550.56824	-1219.13391	560.36407	557.25928	-1153.94849	508.49692	560.90491	-1186.29041	465.05249	414.44199	-1060.18433	491.67822	547.36676	-1021.77655	462.53275	546.19202	-1091.17322	437.34650	553.50818	-1049.34131	417.52267	543.30627	-761.51648	271.23978	497.11261	-785.65674	250.28780	403.02979	-717.40735	310.09808	430.29160	-793.73053	117.01414	533.92175	-845.29285	102.73249	474.39825	-817.16052	107.72385	423.13766	-966.29596	1035.01819	254.92842	-1229.35571	966.57983	172.40781	-1240.89331	607.66809	128.10887	-1256.55103	566.76959	137.59581	-1298.96191	625.73285	135.59634	-1307.67285	583.15265	143.67819	-1285.61499	538.94202	153.72929	-1315.54724	554.88068	273.46539	-1241.03943	469.27451	150.32823	-1240.75525	427.71844	140.26553	-1303.19897	462.38129	151.19273	-1294.43445	416.88495	142.33292	-1239.57446	123.04417	203.40102	-1275.70337	111.27970	292.01932	-1183.64795	86.87366	263.34595	-1398.16272	47.00826	291.33652	-1426.14026	69.84795	241.84270	-1387.81201	42.71012	172.62424
1387	5.54400	-967.58630	1028.19556	336.74359	-1196.90747	951.67987	473.72089	-1170.94849	607.01068	560.94611	-1176.81677	564.21204	567.11407	-1232.68127	606.21716	549.29797	-1228.20728	562.76526	556.32379	-1163.84607	510.47559	559.78345	-1195.81726	466.26022	413.54416	-1069.96411	493.46194	545.96545	-1031.74719	464.80585	544.87762	-1101.06641	439.50842	552.45587	-1059.16833	419.71249	542.19214	-771.17188	273.89664	495.51947	-795.56549	252.79492	401.77277	-727.22565	312.74625	428.59641	-802.98828	120.01520	533.32324	-854.76343	105.48372	474.02679	-826.85156	110.20869	422.63040	-970.49432	1035.97852	254.53647	-1233.07983	967.51337	171.57733	-1243.16248	607.79889	127.75329	-1259.06860	566.94666	136.81322	-1301.31714	625.58374	135.26733	-1309.77161	583.00256	143.33929	-1288.07336	539.21387	152.63177	-1317.71021	554.68945	273.07227	-1242.45642	469.46082	150.16367	-1241.93921	427.89462	140.11687	-1304.57996	462.29861	150.87822	-1295.61719	416.81360	142.11290	-1239.72058	123.15959	203.34364	-1275.69543	111.29201	292.02673	-1183.93225	86.58575	263.61093	-1398.17737	46.98467	291.35141	-1426.15771	69.74380	241.82666	-1387.81396	42.68446	172.61810
1388	5.54800	-971.85669	1029.17798	336.38315	-1201.74622	953.10498	472.90625	-1179.46606	608.64148	559.82941	-1186.13794	566.07666	566.11560	-1240.80981	608.73163	548.14746	-1237.39111	565.17694	555.27594	-1173.58228	512.50848	558.62500	-1206.04431	467.93286	412.34186	-1080.09241	495.99429	544.80389	-1041.73535	467.01447	543.63251	-1110.95520	441.50598	551.45154	-1069.07629	421.80591	541.08942	-780.79718	276.44656	494.18015	-805.57391	255.11894	400.60406	-737.13416	315.10086	426.98618	-812.50446	122.63756	532.50140	-864.64075	108.07111	473.45032	-836.85791	112.57652	421.96439	-974.63416	1036.99951	254.18341	-1236.70715	968.45996	170.79083	-1245.33337	607.90649	127.36876	-1260.61328	566.85400	136.98547	-1303.57104	625.43250	134.91109	-1311.70557	582.82520	142.97458	-1289.29346	538.71515	153.25539	-1319.86108	554.58588	272.61978	-1243.79443	469.64337	150.01530	-1243.07153	428.06522	139.96828	-1305.89355	462.20444	150.61191	-1295.83167	416.73987	141.69682	-1239.85510	123.27028	203.30273	-1275.79822	111.40173	291.95740	-1183.83728	86.75578	263.59836	-1398.15295	46.93979	291.35925	-1426.15540	69.64433	241.79300	-1387.85217	42.64291	172.61853
1389	5.55200	-976.14026	1030.24695	336.01184	-1206.55920	954.59204	472.06439	-1188.07080	610.19537	558.86670	-1195.27307	567.76685	565.15613	-1249.29700	611.05304	546.86707	-1246.37048	567.45526	554.11053	-1183.70813	514.31189	557.50775	-1216.29419	469.74448	411.21985	-1090.17249	498.01605	543.56293	-1051.80212	468.97757	542.40637	-1120.96545	443.48392	550.28790	-1079.10669	423.75546	539.88531	-790.73627	278.64795	492.84924	-815.57123	257.16769	399.34671	-747.08875	317.26358	425.51169	-822.22064	124.83955	531.43439	-874.44080	110.14987	472.55844	-846.86414	114.62771	421.02487	-978.72083	1038.05847	253.87816	-1240.23608	969.41882	170.05144	-1247.35181	608.04706	127.00604	-1262.88428	567.07190	136.22215	-1305.70068	625.29156	134.52315	-1313.51672	582.73285	142.54097	-1291.52466	539.04254	152.14496	-1321.90735	554.44696	272.21240	-1245.06836	469.81927	149.86362	-1244.09839	428.28250	139.81963	-1307.10596	462.16724	150.31442	-1297.77271	416.80118	141.61754	-1239.94800	123.41306	203.22562	-1275.84326	111.46265	291.91058	-1183.85046	86.87670	263.57571	-1398.18079	46.96171	291.32578	-1426.17065	69.59640	241.73604	-1387.83167	42.60907	172.58083
1390	5.55600	-980.39044	1031.38379	335.66333	-1211.45703	956.20544	471.16528	-1196.55505	611.74231	557.81482	-1204.42004	569.41370	564.17273	-1257.94946	613.25018	545.51282	-1255.51062	569.75323	552.84558	-1193.67896	516.19482	556.30066	-1226.44153	471.71570	409.96625	-1100.22217	499.83206	542.33258	-1061.82568	470.80811	541.13922	-1131.03503	445.36884	549.14081	-1089.21265	425.66516	538.72168	-800.87036	280.45462	491.52734	-825.73456	258.75452	397.97968	-757.35980	319.07587	424.15726	-832.17969	126.64252	530.24774	-884.38342	111.73318	471.36273	-856.79077	116.30154	419.84015	-982.73553	1039.16553	253.58730	-1243.66528	970.38965	169.36234	-1249.32446	608.24506	126.67604	-1264.59790	567.20953	135.91212	-1307.72388	625.20746	134.15508	-1315.16785	582.66254	142.07663	-1292.98828	539.02734	151.83226	-1323.87622	554.43616	271.80081	-1245.91882	470.04477	149.63853	-1245.00293	428.58209	139.74522	-1308.48352	461.69000	149.70671	-1297.81262	416.76160	141.18668	-1240.04260	123.54632	203.16420	-1275.84692	111.53485	291.85098	-1183.89294	87.01100	263.59561	-1398.16870	46.97982	291.34747	-1426.17651	69.55109	241.70195	-1387.82544	42.57629	172.58890
1391	5.56000	-984.56848	1032.57349	335.38306	-1216.29114	957.85114	470.23831	-1205.26025	613.29028	556.90857	-1213.61658	571.07916	563.13580	-1266.46106	615.59668	544.16498	-1264.64771	572.03314	551.54779	-1203.66809	518.00964	555.11438	-1237.50012	474.44699	408.47150	-1110.33667	501.55231	541.17529	-1071.92688	472.49673	539.97321	-1141.13367	447.10104	547.90485	-1099.39709	427.38367	537.45105	-811.23346	281.83841	490.26062	-835.93463	260.26920	396.66101	-767.62799	320.59329	422.95447	-842.41742	128.03291	528.82031	-894.54132	113.09817	469.91425	-866.91309	117.67946	418.39902	-986.80817	1040.29675	253.34172	-1246.99280	971.37158	168.72665	-1251.04297	608.52026	126.35631	-1266.14661	567.38971	135.60110	-1309.51697	625.13934	133.74718	-1316.70703	582.54266	141.58701	-1294.46680	539.06403	151.60181	-1325.63647	554.34650	271.38705	-1247.31946	470.25665	149.48357	-1246.03259	428.76913	139.58305	-1309.59888	461.72464	149.42648	-1299.59131	416.81943	141.12933	-1240.34607	123.65480	203.06396	-1275.94507	111.62682	291.78235	-1183.90332	87.16515	263.59805	-1398.16711	46.98373	291.32523	-1426.15649	69.53719	241.66043	-1387.83813	42.56964	172.57924
